<mxfile host="app.diagrams.net" modified="2022-09-13T02:35:01.087Z" agent="5.0 (Windows NT 10.0; Win64; x64) AppleWebKit/537.36 (KHTML, like Gecko) Chrome/105.0.0.0 Safari/537.36" etag="2T0Vzs2lw2mke7Gh65pq" version="20.3.0" type="github">
  <diagram id="-LAORapCInyCLERRSBQr" name="Page-1">
    <mxGraphModel dx="1038" dy="547" grid="1" gridSize="10" guides="1" tooltips="1" connect="1" arrows="1" fold="1" page="1" pageScale="1" pageWidth="827" pageHeight="1169" math="0" shadow="0">
      <root>
        <mxCell id="0" />
        <mxCell id="1" parent="0" />
        <mxCell id="DvIkdHeXtvA2LfT9b5AH-25" style="edgeStyle=orthogonalEdgeStyle;rounded=0;orthogonalLoop=1;jettySize=auto;html=1;exitX=1;exitY=0.5;exitDx=0;exitDy=0;entryX=0;entryY=0.5;entryDx=0;entryDy=0;" edge="1" parent="1" source="DvIkdHeXtvA2LfT9b5AH-1" target="DvIkdHeXtvA2LfT9b5AH-23">
          <mxGeometry relative="1" as="geometry" />
        </mxCell>
        <mxCell id="DvIkdHeXtvA2LfT9b5AH-1" value="Employee" style="rounded=0;whiteSpace=wrap;html=1;" vertex="1" parent="1">
          <mxGeometry x="160" y="120" width="100" height="40" as="geometry" />
        </mxCell>
        <mxCell id="DvIkdHeXtvA2LfT9b5AH-2" value="Emp ID(PK)" style="ellipse;whiteSpace=wrap;html=1;" vertex="1" parent="1">
          <mxGeometry x="100" y="40" width="70" height="40" as="geometry" />
        </mxCell>
        <mxCell id="DvIkdHeXtvA2LfT9b5AH-3" value="" style="endArrow=none;html=1;rounded=0;entryX=1;entryY=1;entryDx=0;entryDy=0;exitX=0.25;exitY=0;exitDx=0;exitDy=0;" edge="1" parent="1" source="DvIkdHeXtvA2LfT9b5AH-1" target="DvIkdHeXtvA2LfT9b5AH-2">
          <mxGeometry width="50" height="50" relative="1" as="geometry">
            <mxPoint x="390" y="310" as="sourcePoint" />
            <mxPoint x="440" y="260" as="targetPoint" />
          </mxGeometry>
        </mxCell>
        <mxCell id="DvIkdHeXtvA2LfT9b5AH-6" value="Name" style="ellipse;whiteSpace=wrap;html=1;" vertex="1" parent="1">
          <mxGeometry x="190" y="40" width="70" height="40" as="geometry" />
        </mxCell>
        <mxCell id="DvIkdHeXtvA2LfT9b5AH-7" value="Address" style="ellipse;whiteSpace=wrap;html=1;" vertex="1" parent="1">
          <mxGeometry x="270" y="40" width="70" height="40" as="geometry" />
        </mxCell>
        <mxCell id="DvIkdHeXtvA2LfT9b5AH-8" value="Gender" style="ellipse;whiteSpace=wrap;html=1;" vertex="1" parent="1">
          <mxGeometry x="30" y="110" width="70" height="40" as="geometry" />
        </mxCell>
        <mxCell id="DvIkdHeXtvA2LfT9b5AH-9" value="DOB" style="ellipse;whiteSpace=wrap;html=1;" vertex="1" parent="1">
          <mxGeometry x="30" y="160" width="70" height="40" as="geometry" />
        </mxCell>
        <mxCell id="DvIkdHeXtvA2LfT9b5AH-10" value="DOJ" style="ellipse;whiteSpace=wrap;html=1;" vertex="1" parent="1">
          <mxGeometry x="30" y="200" width="70" height="40" as="geometry" />
        </mxCell>
        <mxCell id="DvIkdHeXtvA2LfT9b5AH-17" value="" style="endArrow=none;html=1;rounded=0;entryX=0.297;entryY=0.975;entryDx=0;entryDy=0;entryPerimeter=0;" edge="1" parent="1" target="DvIkdHeXtvA2LfT9b5AH-6">
          <mxGeometry width="50" height="50" relative="1" as="geometry">
            <mxPoint x="200" y="120" as="sourcePoint" />
            <mxPoint x="169.74873734152925" y="84.14213562373106" as="targetPoint" />
          </mxGeometry>
        </mxCell>
        <mxCell id="DvIkdHeXtvA2LfT9b5AH-19" value="" style="endArrow=none;html=1;rounded=0;entryX=1;entryY=0.5;entryDx=0;entryDy=0;" edge="1" parent="1" target="DvIkdHeXtvA2LfT9b5AH-8">
          <mxGeometry width="50" height="50" relative="1" as="geometry">
            <mxPoint x="160" y="130" as="sourcePoint" />
            <mxPoint x="169.74873734152925" y="84.14213562373106" as="targetPoint" />
          </mxGeometry>
        </mxCell>
        <mxCell id="DvIkdHeXtvA2LfT9b5AH-20" value="" style="endArrow=none;html=1;rounded=0;entryX=1;entryY=0.5;entryDx=0;entryDy=0;exitX=0;exitY=1;exitDx=0;exitDy=0;" edge="1" parent="1" source="DvIkdHeXtvA2LfT9b5AH-1" target="DvIkdHeXtvA2LfT9b5AH-9">
          <mxGeometry width="50" height="50" relative="1" as="geometry">
            <mxPoint x="205" y="140" as="sourcePoint" />
            <mxPoint x="179.74873734152925" y="94.14213562373106" as="targetPoint" />
          </mxGeometry>
        </mxCell>
        <mxCell id="DvIkdHeXtvA2LfT9b5AH-21" value="" style="endArrow=none;html=1;rounded=0;entryX=0;entryY=1;entryDx=0;entryDy=0;" edge="1" parent="1" target="DvIkdHeXtvA2LfT9b5AH-7">
          <mxGeometry width="50" height="50" relative="1" as="geometry">
            <mxPoint x="240" y="120" as="sourcePoint" />
            <mxPoint x="189.74873734152925" y="104.14213562373106" as="targetPoint" />
          </mxGeometry>
        </mxCell>
        <mxCell id="DvIkdHeXtvA2LfT9b5AH-22" value="" style="endArrow=none;html=1;rounded=0;entryX=1;entryY=0.5;entryDx=0;entryDy=0;exitX=0.25;exitY=0;exitDx=0;exitDy=0;" edge="1" parent="1" target="DvIkdHeXtvA2LfT9b5AH-10">
          <mxGeometry width="50" height="50" relative="1" as="geometry">
            <mxPoint x="225" y="160" as="sourcePoint" />
            <mxPoint x="199.74873734152925" y="114.14213562373106" as="targetPoint" />
          </mxGeometry>
        </mxCell>
        <mxCell id="DvIkdHeXtvA2LfT9b5AH-26" style="edgeStyle=orthogonalEdgeStyle;rounded=0;orthogonalLoop=1;jettySize=auto;html=1;exitX=1;exitY=0.5;exitDx=0;exitDy=0;" edge="1" parent="1" source="DvIkdHeXtvA2LfT9b5AH-23">
          <mxGeometry relative="1" as="geometry">
            <mxPoint x="550" y="140" as="targetPoint" />
          </mxGeometry>
        </mxCell>
        <mxCell id="DvIkdHeXtvA2LfT9b5AH-23" value="Works in" style="rhombus;whiteSpace=wrap;html=1;" vertex="1" parent="1">
          <mxGeometry x="360" y="100" width="80" height="80" as="geometry" />
        </mxCell>
        <mxCell id="DvIkdHeXtvA2LfT9b5AH-36" value="Department&amp;nbsp;" style="rounded=0;whiteSpace=wrap;html=1;" vertex="1" parent="1">
          <mxGeometry x="544" y="120" width="100" height="40" as="geometry" />
        </mxCell>
        <mxCell id="DvIkdHeXtvA2LfT9b5AH-37" value="Dep ID(PK)" style="ellipse;whiteSpace=wrap;html=1;" vertex="1" parent="1">
          <mxGeometry x="484" y="40" width="70" height="40" as="geometry" />
        </mxCell>
        <mxCell id="DvIkdHeXtvA2LfT9b5AH-38" value="" style="endArrow=none;html=1;rounded=0;entryX=1;entryY=1;entryDx=0;entryDy=0;exitX=0.25;exitY=0;exitDx=0;exitDy=0;" edge="1" parent="1" source="DvIkdHeXtvA2LfT9b5AH-36" target="DvIkdHeXtvA2LfT9b5AH-37">
          <mxGeometry width="50" height="50" relative="1" as="geometry">
            <mxPoint x="774" y="310" as="sourcePoint" />
            <mxPoint x="824" y="260" as="targetPoint" />
          </mxGeometry>
        </mxCell>
        <mxCell id="DvIkdHeXtvA2LfT9b5AH-39" value="Name" style="ellipse;whiteSpace=wrap;html=1;" vertex="1" parent="1">
          <mxGeometry x="574" y="40" width="70" height="40" as="geometry" />
        </mxCell>
        <mxCell id="DvIkdHeXtvA2LfT9b5AH-40" value="Address" style="ellipse;whiteSpace=wrap;html=1;" vertex="1" parent="1">
          <mxGeometry x="654" y="40" width="70" height="40" as="geometry" />
        </mxCell>
        <mxCell id="DvIkdHeXtvA2LfT9b5AH-44" value="" style="endArrow=none;html=1;rounded=0;entryX=0.297;entryY=0.975;entryDx=0;entryDy=0;entryPerimeter=0;" edge="1" parent="1" target="DvIkdHeXtvA2LfT9b5AH-39">
          <mxGeometry width="50" height="50" relative="1" as="geometry">
            <mxPoint x="584" y="120" as="sourcePoint" />
            <mxPoint x="553.7487373415292" y="84.14213562373106" as="targetPoint" />
          </mxGeometry>
        </mxCell>
        <mxCell id="DvIkdHeXtvA2LfT9b5AH-47" value="" style="endArrow=none;html=1;rounded=0;entryX=0;entryY=1;entryDx=0;entryDy=0;" edge="1" parent="1" target="DvIkdHeXtvA2LfT9b5AH-40">
          <mxGeometry width="50" height="50" relative="1" as="geometry">
            <mxPoint x="624" y="120" as="sourcePoint" />
            <mxPoint x="573.7487373415292" y="104.14213562373106" as="targetPoint" />
          </mxGeometry>
        </mxCell>
      </root>
    </mxGraphModel>
  </diagram>
</mxfile>
